<?xml version="1.0" encoding="utf-8"?>
<!-- Generator: Adobe Illustrator 28.0.0, SVG Export Plug-In . SVG Version: 6.00 Build 0)  -->
<svg version="1.1" id="Layer_1" xmlns="http://www.w3.org/2000/svg" xmlns:xlink="http://www.w3.org/1999/xlink" x="0px" y="0px"
	 viewBox="0 0 24 24" style="enable-background:new 0 0 24 24;" xml:space="preserve">
<style type="text/css">
	.st0{fill:none;}
	.st1{fill:#3185A8;}
	.st2{fill:#2C78A9;}
	.st3{fill:#3495B2;}
	.st4{fill:#2E99B2;}
	.st5{fill:#35A1B7;}
	.st6{fill:#39AABA;}
	.st7{fill:#2F8BB0;}
	.st8{fill:#2A93B7;}
</style>
<path class="st0" d="M10.6,14.7c-0.1,0-0.2,0.1-0.2,0.2c0,0.1,0.1,0.2,0.2,0.2s0.2-0.1,0.2-0.2C10.8,14.8,10.7,14.7,10.6,14.7z"/>
<path class="st0" d="M14.2,12.2c-0.1,0-0.2,0.1-0.2,0.2s0.1,0.2,0.2,0.2s0.2-0.1,0.2-0.2S14.3,12.2,14.2,12.2z"/>
<path class="st0" d="M5.8,15.1c-0.1,0-0.2,0.1-0.2,0.2s0.1,0.2,0.2,0.2c0.1,0,0.2-0.1,0.2-0.2S5.9,15.1,5.8,15.1z"/>
<path class="st0" d="M10.6,8.3c-0.1,0-0.2,0.1-0.2,0.2c0,0.1,0.1,0.2,0.2,0.2s0.2-0.1,0.2-0.2C10.8,8.4,10.7,8.3,10.6,8.3z"/>
<path class="st0" d="M9.5,9.7c0.1,0,0.2-0.1,0.2-0.2S9.6,9.3,9.5,9.3c-0.1,0-0.2,0.1-0.2,0.2S9.4,9.7,9.5,9.7z"/>
<path class="st0" d="M13.9,7.2c-0.1,0-0.2,0.1-0.2,0.2s0.1,0.2,0.2,0.2c0.1,0,0.2-0.1,0.2-0.2S14,7.2,13.9,7.2z"/>
<circle class="st0" cx="7" cy="12.1" r="0.2"/>
<path class="st0" d="M17.5,11.8c-0.1,0-0.2,0.1-0.2,0.2s0.1,0.2,0.2,0.2c0.1,0,0.2-0.1,0.2-0.2S17.6,11.8,17.5,11.8z"/>
<path class="st0" d="M13.7,15.1c0.1,0,0.2-0.1,0.2-0.2c0-0.1-0.1-0.2-0.2-0.2s-0.2,0.1-0.2,0.2C13.5,15,13.5,15.1,13.7,15.1z"/>
<circle class="st0" cx="13.8" cy="16.6" r="0.2"/>
<path class="st0" d="M16.4,13.1c-0.1,0-0.2,0.1-0.2,0.2c0,0.1,0.1,0.2,0.2,0.2s0.2-0.1,0.2-0.2C16.6,13.2,16.5,13.1,16.4,13.1z"/>
<path class="st1" d="M10.3,13.5c0.1,0,0.2-0.1,0.2-0.2c0-0.1-0.1-0.2-0.2-0.2H9.2c-0.1,0-0.2,0.1-0.2,0.2c0,0.1,0.1,0.2,0.2,0.2
	H10.3z"/>
<path class="st2" d="M8.5,15.4c0.1,0,0.1,0,0.2-0.1c0.1-0.1,0.1-0.2,0-0.3L8,14.6c-0.1-0.1-0.2-0.1-0.3,0s-0.1,0.2,0,0.3l0.6,0.4
	C8.4,15.4,8.4,15.4,8.5,15.4z"/>
<path class="st3" d="M16.4,12.8c-0.2,0-0.4,0.1-0.5,0.3h-2.1c-0.1,0-0.2,0.1-0.2,0.2c0,0.1,0.1,0.2,0.2,0.2H16
	c0.1,0.2,0.3,0.3,0.5,0.3c0.3,0,0.5-0.2,0.5-0.5C16.9,13.1,16.7,12.8,16.4,12.8z M16.4,13.5c-0.1,0-0.2-0.1-0.2-0.2
	c0-0.1,0.1-0.2,0.2-0.2s0.2,0.1,0.2,0.2C16.6,13.4,16.5,13.5,16.4,13.5z"/>
<path class="st4" d="M17.1,9.6c0-0.1-0.1-0.2-0.3-0.2s-0.2,0.1-0.2,0.3c0,0.1,0.1,0.4-0.2,0.8c-0.2,0.3-0.5,0.3-0.6,0.3
	c-0.1,0-0.2,0.1-0.2,0.2c0,0.1,0,0.6-0.5,0.9c-0.2,0.1-0.4,0.2-0.6,0.2c-0.1-0.2-0.3-0.3-0.5-0.3c-0.3,0-0.5,0.2-0.5,0.5
	c0,0.3,0.2,0.5,0.5,0.5c0.2,0,0.4-0.1,0.5-0.3c0.2,0,0.6-0.1,0.8-0.3c0.4-0.3,0.6-0.8,0.6-1.1c0.2,0,0.5-0.2,0.7-0.4
	C17.2,10.3,17.1,9.7,17.1,9.6z M14.2,12.6c-0.1,0-0.2-0.1-0.2-0.2s0.1-0.2,0.2-0.2s0.2,0.1,0.2,0.2S14.3,12.6,14.2,12.6z"/>
<path class="st5" d="M7,9.4C7,9.5,7,9.6,7.1,9.7l1.5,1.2c0,0,0.1,0,0.1,0c0.1,0,0.1,0,0.2-0.1c0.1-0.1,0.1-0.2,0-0.3L7.3,9.3
	C7.3,9.3,7.1,9.3,7,9.4z"/>
<path class="st2" d="M11.6,13.8c-0.1,0-0.2,0.1-0.2,0.2v1c-0.1-0.1-0.2-0.1-0.3-0.2c0-0.2-0.2-0.4-0.5-0.4c-0.3,0-0.5,0.2-0.5,0.5
	c0,0.3,0.2,0.5,0.5,0.5c0.1,0,0.2,0,0.3-0.1c0.2,0,0.5,0.2,0.5,0.5c0,0.1,0,0.1,0,0.2v0.8c0,0.2,0,0.4,0,0.6
	c-0.1,0.4-0.4,0.8-0.9,0.8c-0.5,0-0.9-0.3-1-0.8c0,0,0,0,0,0c0-0.1,0-0.2,0-0.3c0.1-0.1,0.3-0.2,0.4-0.2c0.1,0,0.2-0.1,0.3-0.2
	c0-0.1-0.1-0.2-0.2-0.3c-0.4-0.1-0.7,0.1-0.9,0.3c0,0,0,0,0,0c-0.1,0.2-0.2,0.3-0.5,0.3c0,0,0,0,0,0c-0.2,0-0.4-0.1-0.7-0.2
	c-0.2-0.2-0.4-0.3-0.5-0.5c0.2,0.1,0.3,0.1,0.5,0.1c0.3,0,0.7-0.1,1-0.3c0.6-0.5,0.6-1.2,0.7-1.3c0-0.1-0.1-0.2-0.2-0.2
	c-0.1,0-0.2,0.1-0.2,0.2c0,0.1,0,0.6-0.5,1c-0.4,0.3-0.9,0.3-1.4,0.1l-0.5-0.3c-0.1-0.1-0.2,0-0.3,0.1c-0.1,0.1,0,0.2,0.1,0.3
	l0.3,0.2c0.1,0.2,0.3,0.8,0.9,1.2c0.4,0.3,0.8,0.3,1.1,0.3c0,0,0,0,0,0c0.1,0,0.2,0,0.3,0.1c0,0,0,0.1,0.1,0.1
	c0.2,0.4,0.7,0.7,1.2,0.7c0,0,0.1,0,0.1,0c0.7-0.1,1.2-0.6,1.3-1.3c0,0,0,0,0,0c0,0,0,0,0,0V14C11.9,13.9,11.8,13.8,11.6,13.8z
	 M10.6,15.1c-0.1,0-0.2-0.1-0.2-0.2c0-0.1,0.1-0.2,0.2-0.2s0.2,0.1,0.2,0.2C10.8,15,10.7,15.1,10.6,15.1z"/>
<path class="st6" d="M12.5,10.9c0.1,0,0.2-0.1,0.2-0.2V8.6c0.2,0.1,0.4,0.2,0.5,0.2c0,0,0,0,0,0h1c0.1,0,0.2-0.1,0.2-0.2
	c0-0.1-0.1-0.2-0.2-0.2h-1c-0.1,0-0.2,0-0.4-0.2c-0.1-0.1-0.2-0.3-0.2-0.4c0,0,0,0,0,0V6.8c0,0,0,0,0,0c0-0.5,0.3-0.9,0.7-1
	c0.2,0,0.5,0,0.7,0.1c0.2,0.1,0.4,0.4,0.4,0.6c0,0.1,0.1,0.2,0.2,0.2c0.1,0,0.2-0.1,0.2-0.2c0,0,0,0,0,0c0.1,0,0.4-0.1,0.6,0.1
	c0.2,0.1,0.4,0.3,0.4,0.4C16,7,16.1,7,16.1,7c0,0,0.1,0,0.1,0c0.1-0.1,0.1-0.2,0.1-0.3c-0.1-0.2-0.4-0.4-0.6-0.5
	c-0.2-0.1-0.4-0.1-0.6-0.1c0,0-0.1,0-0.1,0c-0.1,0-0.2,0-0.3-0.1c-0.1-0.1-0.1-0.1-0.2-0.2c-0.1,0-0.1-0.1-0.2-0.1
	c-0.3-0.2-0.7-0.3-1-0.2c-0.6,0.1-1,0.6-1,1.2c0,0,0,0,0,0.1v4C12.3,10.8,12.4,10.9,12.5,10.9z"/>
<path class="st6" d="M13.9,6.9c-0.3,0-0.5,0.2-0.5,0.5c0,0.3,0.2,0.5,0.5,0.5c0.1,0,0.2,0,0.3-0.1c0,0,0,0,0,0
	C14.4,7.9,14.5,8,14.7,8c0,0,0,0,0,0h0.4c0.1,0,0.2-0.1,0.2-0.2c0-0.1-0.1-0.2-0.2-0.2h-0.4c0,0,0,0,0,0c-0.1,0-0.2,0-0.3,0
	c0,0,0,0,0,0C14.4,7.2,14.2,6.9,13.9,6.9z M13.9,7.7c-0.1,0-0.2-0.1-0.2-0.2s0.1-0.2,0.2-0.2c0.1,0,0.2,0.1,0.2,0.2S14,7.7,13.9,7.7
	z"/>
<path class="st7" d="M18.9,11.9C18.9,11.9,18.9,11.9,18.9,11.9c-0.1-0.1-0.1-0.2-0.1-0.3c0.1-0.2,0.2-0.5,0.1-0.8
	c0-0.2-0.1-0.4-0.2-0.5c0,0,0,0,0,0c-0.1-0.2-0.2-0.3-0.2-0.4c0-0.2,0-0.5-0.2-0.8c-0.1-0.3-0.3-0.5-0.5-0.7c-0.1-0.1-0.2-0.1-0.3,0
	c-0.1,0.1-0.1,0.2,0,0.3c0.2,0.2,0.3,0.4,0.4,0.6c0.1,0.2,0.1,0.4,0.1,0.6c0,0,0,0,0,0.1c0,0.2,0,0.2-0.1,0.3l-0.1,0c0,0,0,0,0,0
	l-0.2,0.1c-0.1,0.1-0.1,0.2-0.1,0.3c0,0.1,0.1,0.1,0.2,0.1c0,0,0.1,0,0.1,0l0.3-0.2c0.1,0,0.1,0,0.2,0c0,0,0,0,0,0
	c0.1,0.1,0.1,0.2,0.1,0.3c0.1,0.4-0.2,0.7-0.2,0.7c0,0,0,0,0,0c-0.2,0.2-0.4,0.2-0.6,0.1c0,0,0,0,0,0c-0.1,0-0.2-0.1-0.3-0.1
	c-0.3,0-0.5,0.2-0.5,0.5s0.2,0.5,0.5,0.5c0.2,0,0.4-0.2,0.5-0.4c0-0.1,0.2-0.1,0.4-0.1c0.1,0,0.1,0,0.2,0.1c0.1,0.2,0.1,0.4,0.1,0.7
	c0,0.5-0.3,0.8-0.4,1c-0.1,0.1-0.1,0.1-0.1,0.2c0,0.2,0.1,0.6-0.1,1c-0.1,0.3-0.3,0.4-0.5,0.6c0.1-0.3,0-0.6-0.1-0.9c0,0,0,0,0,0
	c0,0,0,0,0,0c0,0,0,0,0,0c-0.1-0.2-0.1-0.3,0-0.5c0-0.1,0.1-0.2-0.1-0.3c-0.1-0.1-0.3,0-0.3,0.1c-0.2,0.3-0.1,0.2-0.3,0.4
	c-0.2,0.2-0.4,0.4-0.6,0.5c-0.1,0-0.2,0.1-0.3,0.1c-0.1,0-0.2,0.2-0.1,0.3c0,0.1,0.2,0.2,0.3,0.1c0.1,0,0.2-0.1,0.3-0.1
	c0.2-0.1,0.3-0.2,0.4-0.3c0,0,0,0,0,0c0.1-0.1,0.2-0.1,0.3,0.1c0,0,0,0,0,0c0.1,0.3,0.1,0.7-0.1,0.8c-0.3,0.4-1,0.2-1.4,0
	c-0.4-0.3-0.5-0.8-0.5-0.9c0-0.1-0.1-0.2-0.2-0.2c-0.1,0-0.2,0.1-0.2,0.2c0,0.2,0.1,0.6,0.5,1c0,0,0.1,0.1,0.2,0.1
	c0,0,0.1,0,0.1,0.1c0,0,0,0,0,0c0.3,0.2,0.6,0.3,1,0.3c0.1,0,0.2,0,0.3,0c-0.1,0.2-0.2,0.3-0.4,0.5c-0.1,0.1-0.2,0.1-0.2,0.1
	c-0.2,0.1-0.3,0.1-0.5,0.1c0,0,0,0-0.1,0c-0.2,0-0.2-0.1-0.3-0.2c0,0,0,0,0,0c0-0.1-0.1-0.2-0.2-0.3c-0.1-0.2-0.3-0.2-0.5-0.3
	c0,0,0,0,0,0c-0.1,0-0.2,0-0.2-0.1c0,0,0,0,0,0c0,0,0,0,0,0c0,0,0,0,0,0c-0.1-0.1-0.2-0.1-0.3-0.1c-0.3,0-0.5,0.2-0.5,0.5
	c0,0.3,0.2,0.5,0.5,0.5c0.2,0,0.4-0.1,0.4-0.3c0,0,0,0,0,0c0-0.1,0.1-0.1,0.2-0.1c0.1,0,0.2,0.1,0.2,0.1c0.1,0.1,0.1,0.2,0.1,0.4
	c0,0,0,0,0,0c-0.1,0.6-0.6,1-1.1,0.9c-0.4,0-0.7-0.4-0.9-0.8c0,0,0-0.1,0-0.1c0-0.3,0-0.6,0-1v-0.3c0-0.3,0.2-0.6,0.4-0.8
	c0,0,0.1-0.1,0.1-0.1c0.1,0.1,0.2,0.2,0.4,0.2c0.3,0,0.5-0.2,0.5-0.5c0-0.3-0.2-0.5-0.5-0.5c-0.2,0-0.3,0.1-0.4,0.2c0,0,0,0,0,0
	c-0.2,0.2-0.2,0.3-0.5,0.4c0-0.1,0-0.2,0-0.3v-1.4c0-0.1-0.1-0.2-0.2-0.2c0,0,0,0,0,0c0,0,0,0,0,0c0,0,0,0,0,0
	c-0.1,0-0.2,0.1-0.2,0.2v2.8c0,0.4,0,0.7,0,1c0,0.2,0,0.3,0.1,0.4c0.2,0.6,0.7,1,1.2,1c0,0,0.1,0,0.1,0c0.5,0,1.1-0.3,1.3-0.9
	c0,0,0,0,0,0c0.1-0.2,0.1-0.2,0.3-0.2c0,0,0,0,0,0c0,0,0,0,0,0c0,0,0,0,0,0c0,0,0,0,0,0c0.9,0,1.5-0.5,1.8-1.3c0,0,0,0,0,0
	c0,0,0,0,0,0c0-0.1,0.1-0.2,0.2-0.2c0,0,0,0,0,0c0.3-0.1,0.7-0.4,1-0.9c0.2-0.4,0.2-0.7,0.2-1c0,0,0,0,0,0c0-0.1,0-0.2,0-0.3
	c0,0,0.1-0.1,0.1-0.1c0.2-0.2,0.3-0.6,0.4-1C19.1,12.4,19,12.1,18.9,11.9z M17.5,12.2c-0.1,0-0.2-0.1-0.2-0.2s0.1-0.2,0.2-0.2
	c0.1,0,0.2,0.1,0.2,0.2S17.6,12.2,17.5,12.2z M13.8,16.8c-0.1,0-0.2-0.1-0.2-0.2s0.1-0.2,0.2-0.2s0.2,0.1,0.2,0.2
	S13.9,16.8,13.8,16.8z M13.7,14.7c0.1,0,0.2,0.1,0.2,0.2c0,0.1-0.1,0.2-0.2,0.2s-0.2-0.1-0.2-0.2C13.5,14.8,13.5,14.7,13.7,14.7z"/>
<path class="st5" d="M5.5,11.9C5.5,11.9,5.5,11.9,5.5,11.9c0,0.1-0.1,0.1-0.1,0.1c-0.1,0.2-0.2,0.6-0.2,0.9c0,0.5,0.2,0.9,0.3,1.1
	c0,0.1,0.1,0.1,0.2,0.1c0,0,0.1,0,0.1,0C5.9,14,6,13.9,5.9,13.8c-0.1-0.2-0.3-0.5-0.3-0.9c0-0.3,0.1-0.5,0.1-0.7c0,0,0,0,0,0
	c0,0,0,0,0,0C5.9,12,6,12,6.1,12.1c0.2,0.1,0.3,0.1,0.4,0.2c0,0,0,0,0,0c0.1,0.2,0.3,0.3,0.5,0.3c0.3,0,0.5-0.2,0.5-0.5
	c0-0.3-0.2-0.5-0.5-0.5c0,0-0.1,0-0.1,0c-0.1,0-0.1,0-0.2,0.1c-0.1,0-0.1,0.1-0.2,0.1c-0.3,0-0.7-0.4-0.7-0.7c0-0.4,0.2-0.5,0.5-0.4
	c0,0,0.1,0,0.1,0c0.1,0,0.3,0,0.3-0.2c0-0.2-0.1-0.2-0.2-0.3C6.4,10.1,6.3,10,6.3,9.9c0-0.2,0-0.5,0.1-0.8c0.1-0.2,0.2-0.4,0.3-0.5
	c0,0,0.1-0.1,0.1-0.1c0.1-0.1,0.3-0.1,0.4,0C7.4,8.7,7.5,8.8,7.6,9C7.7,9.1,7.8,9.2,8,9C8.1,8.9,8,8.8,7.9,8.7
	C7.8,8.5,7.6,8.3,7.4,8.2c0-0.1-0.1-0.1-0.1-0.2c0-0.2,0.2-0.4,0.4-0.5c0,0,0,0,0,0C8,7.3,8,7.4,8.1,7.5C8.3,7.8,8.6,8,9,8.1
	c0.1,0,0.1,0,0.2,0c0,0,0.1,0,0.1,0V9C9.1,9.1,9,9.3,9,9.5C9,9.8,9.2,10,9.5,10C9.8,10,10,9.8,10,9.5C10,9.3,9.9,9.1,9.7,9V8
	c0.2-0.1,0.4-0.2,0.6-0.4c0.1-0.1,0.1-0.2,0-0.3c-0.1-0.1-0.2-0.1-0.3,0C9.8,7.6,9.4,7.7,9.1,7.6c-0.3,0-0.6-0.3-0.7-0.6
	c0,0,0-0.1,0-0.1c0.1-0.1,0.2-0.2,0.3-0.3C8.8,6.5,9,6.5,9.2,6.5c0.1,0,0.1,0.1,0.1,0.1v0.2C9.3,6.9,9.4,7,9.5,7s0.2-0.1,0.2-0.2
	V6.4c0-0.1,0-0.1,0.1-0.2c0,0,0,0,0,0c0.3-0.3,0.7-0.4,1-0.2c0.3,0.1,0.5,0.4,0.5,0.6c0,0.1,0,0.1,0,0.2c0,0.3,0,0.6,0,0.9
	c0,0.4-0.3,0.6-0.5,0.5c0,0,0,0,0,0c-0.1-0.1-0.2-0.1-0.3-0.1c-0.3,0-0.5,0.2-0.5,0.5c0,0.3,0.2,0.5,0.5,0.5c0.2,0,0.4-0.1,0.5-0.3
	c0,0,0,0,0,0c0.1,0,0.1-0.1,0.3-0.2c0,0,0,0,0,0v2.7c0,0.1,0.1,0.2,0.2,0.2s0.2-0.1,0.2-0.2V6.7c0,0,0,0,0,0c0,0,0,0,0,0
	c0-0.6-0.4-1-0.9-1.2c0,0,0,0,0,0c0,0-0.1,0-0.1,0c0,0,0,0,0,0c0,0-0.1,0-0.1,0c0,0,0,0,0,0c0,0,0,0-0.1,0c-0.3,0-0.6,0-0.9,0.2
	C9.7,5.8,9.5,5.9,9.4,6c-0.2,0-0.6,0-1,0.2c0,0,0,0,0,0C8.3,6.4,8.1,6.5,8,6.7C8,6.8,7.9,6.8,7.9,6.9C7.7,7,7.5,7.1,7.3,7.2
	C7,7.5,6.9,7.8,6.9,8C6.6,8.1,6.2,8.4,6,8.9C5.9,9.2,5.9,9.5,5.9,9.8c0,0,0,0,0,0c0,0.1,0,0.2-0.1,0.3c0,0,0,0,0,0
	c-0.1,0.1-0.3,0.3-0.4,0.6c-0.1,0.3,0,0.5,0,0.7c0,0,0,0,0,0c0,0,0,0,0,0.1c0,0,0,0.1,0.1,0.1C5.5,11.7,5.5,11.8,5.5,11.9
	C5.5,11.9,5.5,11.9,5.5,11.9z M7,11.9c0.1,0,0.2,0.1,0.2,0.2S7.1,12.3,7,12.3s-0.2-0.1-0.2-0.2S6.9,11.9,7,11.9z M9.5,9.3
	c0.1,0,0.2,0.1,0.2,0.2S9.6,9.7,9.5,9.7c-0.1,0-0.2-0.1-0.2-0.2S9.4,9.3,9.5,9.3z M10.6,8.8c-0.1,0-0.2-0.1-0.2-0.2
	c0-0.1,0.1-0.2,0.2-0.2s0.2,0.1,0.2,0.2C10.8,8.7,10.7,8.8,10.6,8.8z"/>
<path class="st0" d="M9.7,11.3c-0.1,0-0.2,0.1-0.2,0.2s0.1,0.2,0.2,0.2c0.1,0,0.2-0.1,0.2-0.2S9.9,11.3,9.7,11.3z"/>
<path class="st0" d="M5.1,15.7c-0.1,0-0.2,0.1-0.2,0.2s0.1,0.2,0.2,0.2c0.1,0,0.2-0.1,0.2-0.2S5.3,15.7,5.1,15.7z"/>
<path class="st0" d="M11.5,12.6c-0.1,0-0.2,0.1-0.2,0.2s0.1,0.2,0.2,0.2s0.2-0.1,0.2-0.2S11.6,12.6,11.5,12.6z"/>
<path class="st0" d="M14.5,10.2c0-0.1-0.1-0.2-0.2-0.2c-0.1,0-0.2,0.1-0.2,0.2s0.1,0.2,0.2,0.2C14.4,10.4,14.5,10.3,14.5,10.2z"/>
<path class="st8" d="M17.6,6.9C17.6,6.9,17.5,6.9,17.6,6.9C17.5,6.9,17.5,6.9,17.6,6.9l-2,0.5c0,0,0,0-0.1,0.1c0,0,0,0.1,0,0.1
	L15.9,8l-0.1,0.1l-1.5,1.5c-0.3,0-0.6,0.3-0.6,0.6l-2.2,2.1c0,0,0,0-0.1,0l-1.1-0.9c0-0.3-0.3-0.5-0.6-0.5c-0.3,0-0.6,0.3-0.6,0.6
	l-3.3,3.2c-0.3,0-0.6,0.3-0.6,0.6c0,0.3,0.3,0.6,0.6,0.6c0.3,0,0.6-0.3,0.6-0.6L6.7,15l3.1-2.9c0,0,0,0,0.1,0l1.1,0.9
	c0,0.3,0.3,0.5,0.6,0.5c0.3,0,0.6-0.3,0.6-0.6l2.2-2.1c0.3,0,0.6-0.3,0.6-0.6l1.5-1.5l0.2-0.2L17,9c0,0,0,0,0.1,0c0,0,0,0,0,0
	c0,0,0,0,0.1-0.1L17.6,6.9C17.6,7,17.6,6.9,17.6,6.9z M5.8,15.5c-0.1,0-0.2-0.1-0.2-0.2s0.1-0.2,0.2-0.2c0.1,0,0.2,0.1,0.2,0.2
	S5.9,15.5,5.8,15.5z M9.7,11.7c-0.1,0-0.2-0.1-0.2-0.2s0.1-0.2,0.2-0.2c0.1,0,0.2,0.1,0.2,0.2S9.9,11.7,9.7,11.7z M11.5,13.1
	c-0.1,0-0.2-0.1-0.2-0.2s0.1-0.2,0.2-0.2s0.2,0.1,0.2,0.2S11.6,13.1,11.5,13.1z M14.3,10.4c-0.1,0-0.2-0.1-0.2-0.2s0.1-0.2,0.2-0.2
	c0.1,0,0.2,0.1,0.2,0.2S14.4,10.4,14.3,10.4z"/>
</svg>
